<svg data-v-fde0c5aa="" xmlns="http://www.w3.org/2000/svg" viewBox="0 0 300 300" class="iconLeft"><!----><defs data-v-fde0c5aa=""><!----></defs><rect data-v-fde0c5aa="" fill="#FFFFFF" x="0" y="0" width="300px" height="300px" class="logo-background-square"></rect><defs data-v-fde0c5aa=""><!----></defs><g data-v-fde0c5aa="" id="bc275cf0-eb30-4c79-a55d-f07fed533060" fill="#FB0200" transform="matrix(1.971958351117666,0,0,1.971958351117666,92.06801536592886,131.7692443292869)"><path d="M1.24 12.61L1.24 2.95L4.27 2.95Q5.26 2.95 6.04 3.28Q6.81 3.62 7.25 4.27Q7.68 4.92 7.68 5.80L7.68 5.80Q7.68 6.69 7.25 7.31Q6.81 7.94 6.04 8.27Q5.26 8.60 4.27 8.60L4.27 8.60L2.97 8.60L2.97 12.61L1.24 12.61ZM2.97 6.98L4.27 6.98Q5.15 6.98 5.55 6.69Q5.96 6.39 5.96 5.80L5.96 5.80Q5.96 4.57 4.27 4.57L4.27 4.57L2.97 4.57L2.97 6.98ZM11.38 12.74Q10.25 12.74 9.47 12.26Q8.70 11.77 8.31 10.97Q7.92 10.17 7.92 9.21L7.92 9.21Q7.92 8.29 8.29 7.46Q8.66 6.64 9.42 6.14Q10.17 5.63 11.27 5.63L11.27 5.63Q12.39 5.63 13.10 6.15Q13.82 6.67 14.13 7.45Q14.44 8.23 14.44 9.08L14.44 9.08Q14.44 9.28 14.42 9.47Q14.40 9.66 14.38 9.73L14.38 9.73L9.69 9.73Q9.93 11.23 11.40 11.23L11.40 11.23Q11.88 11.23 12.28 11.06Q12.69 10.89 13.04 10.51L13.04 10.51L14.18 11.51Q13.62 12.13 12.93 12.44Q12.24 12.74 11.38 12.74L11.38 12.74ZM9.69 8.53L12.80 8.53Q12.71 7.81 12.31 7.42Q11.92 7.03 11.26 7.03L11.26 7.03Q9.96 7.03 9.69 8.53L9.69 8.53ZM15.85 15.60L15.85 5.78L17.54 5.78L17.54 6.46Q17.88 6.04 18.38 5.83Q18.88 5.63 19.46 5.63L19.46 5.63Q20.38 5.63 21.05 6.11Q21.72 6.60 22.07 7.41Q22.42 8.22 22.42 9.19L22.42 9.19Q22.42 10.15 22.07 10.96Q21.72 11.78 21.06 12.26Q20.40 12.74 19.49 12.74L19.49 12.74Q18.92 12.74 18.40 12.54Q17.88 12.34 17.54 11.92L17.54 11.92L17.54 15.60L15.85 15.60ZM19.05 11.20Q19.88 11.20 20.30 10.65Q20.72 10.10 20.72 9.19L20.72 9.19Q20.72 8.28 20.30 7.70Q19.87 7.13 19.05 7.13L19.05 7.13Q18.23 7.13 17.81 7.70Q17.39 8.28 17.39 9.19L17.39 9.19Q17.39 10.10 17.81 10.65Q18.23 11.20 19.05 11.20L19.05 11.20ZM23.85 15.60L23.85 5.78L25.55 5.78L25.55 6.46Q25.89 6.04 26.39 5.83Q26.89 5.63 27.47 5.63L27.47 5.63Q28.39 5.63 29.06 6.11Q29.73 6.60 30.07 7.41Q30.42 8.22 30.42 9.19L30.42 9.19Q30.42 10.15 30.07 10.96Q29.73 11.78 29.07 12.26Q28.40 12.74 27.49 12.74L27.49 12.74Q26.92 12.74 26.40 12.54Q25.89 12.34 25.55 11.92L25.55 11.92L25.55 15.60L23.85 15.60ZM27.06 11.20Q27.88 11.20 28.30 10.65Q28.72 10.10 28.72 9.19L28.72 9.19Q28.72 8.28 28.30 7.70Q27.88 7.13 27.06 7.13L27.06 7.13Q26.24 7.13 25.82 7.70Q25.40 8.28 25.40 9.19L25.40 9.19Q25.40 10.10 25.82 10.65Q26.24 11.20 27.06 11.20L27.06 11.20ZM34.69 12.74Q33.56 12.74 32.78 12.26Q32.00 11.77 31.61 10.97Q31.23 10.17 31.23 9.21L31.23 9.21Q31.23 8.29 31.60 7.46Q31.96 6.64 32.72 6.14Q33.48 5.63 34.58 5.63L34.58 5.63Q35.70 5.63 36.41 6.15Q37.12 6.67 37.43 7.45Q37.74 8.23 37.74 9.08L37.74 9.08Q37.74 9.28 37.72 9.47Q37.71 9.66 37.68 9.73L37.68 9.73L32.99 9.73Q33.23 11.23 34.70 11.23L34.70 11.23Q35.18 11.23 35.59 11.06Q35.99 10.89 36.34 10.51L36.34 10.51L37.49 11.51Q36.93 12.13 36.24 12.44Q35.55 12.74 34.69 12.74L34.69 12.74ZM32.99 8.53L36.10 8.53Q36.02 7.81 35.62 7.42Q35.22 7.03 34.56 7.03L34.56 7.03Q33.26 7.03 32.99 8.53L32.99 8.53ZM39.14 12.61L39.14 5.78L40.76 5.78L40.76 6.92Q40.97 6.32 41.49 5.98Q42 5.63 42.59 5.63L42.59 5.63Q42.94 5.63 43.27 5.76Q43.61 5.88 43.85 6.13L43.85 6.13L43.09 7.49Q42.74 7.26 42.34 7.26L42.34 7.26Q41.93 7.26 41.57 7.52Q41.20 7.79 40.97 8.34Q40.75 8.89 40.75 9.72L40.75 9.72L40.75 12.61L39.14 12.61ZM48.32 12.61L48.32 2.95L51.35 2.95Q52.34 2.95 53.12 3.28Q53.89 3.62 54.33 4.27Q54.76 4.92 54.76 5.80L54.76 5.80Q54.76 6.69 54.33 7.31Q53.89 7.94 53.12 8.27Q52.34 8.60 51.35 8.60L51.35 8.60L50.05 8.60L50.05 12.61L48.32 12.61ZM50.05 6.98L51.35 6.98Q52.23 6.98 52.63 6.69Q53.04 6.39 53.04 5.80L53.04 5.80Q53.04 4.57 51.35 4.57L51.35 4.57L50.05 4.57L50.05 6.98ZM57.66 12.74Q56.96 12.74 56.39 12.48Q55.83 12.22 55.50 11.71Q55.18 11.20 55.18 10.51L55.18 10.51Q55.18 9.46 55.91 9.00Q56.65 8.53 57.90 8.53L57.90 8.53L59.68 8.53Q59.68 7.87 59.33 7.48Q58.98 7.09 58.33 7.09L58.33 7.09Q57.78 7.09 57.38 7.36Q56.97 7.63 56.72 8.05L56.72 8.05L55.45 7.13Q55.97 6.41 56.67 6.02Q57.36 5.63 58.32 5.63L58.32 5.63Q59.23 5.63 59.90 5.99Q60.57 6.34 60.92 6.99Q61.27 7.63 61.27 8.46L61.27 8.46L61.27 12.61L59.90 12.61L59.79 11.63Q59.37 12.24 58.84 12.49Q58.32 12.74 57.66 12.74L57.66 12.74ZM57.90 11.33Q58.37 11.33 58.77 11.11Q59.17 10.89 59.42 10.52Q59.66 10.16 59.68 9.73L59.68 9.73L58.00 9.73Q57.46 9.73 57.17 9.97Q56.89 10.21 56.89 10.56L56.89 10.56Q56.89 10.91 57.16 11.12Q57.42 11.33 57.90 11.33L57.90 11.33ZM64.44 12.74Q63.77 12.74 63.39 12.41Q63.01 12.08 63.01 11.25L63.01 11.25L63.01 2.95L64.67 2.95L64.67 10.79Q64.67 11.25 65.22 11.25L65.22 11.25Q65.41 11.25 65.68 11.20L65.68 11.20L65.68 12.61Q64.98 12.74 64.44 12.74L64.44 12.74ZM68.79 12.74Q68.09 12.74 67.52 12.48Q66.96 12.22 66.63 11.71Q66.31 11.20 66.31 10.51L66.31 10.51Q66.31 9.46 67.04 9.00Q67.78 8.53 69.03 8.53L69.03 8.53L70.81 8.53Q70.81 7.87 70.46 7.48Q70.11 7.09 69.46 7.09L69.46 7.09Q68.91 7.09 68.51 7.36Q68.10 7.63 67.85 8.05L67.85 8.05L66.58 7.13Q67.10 6.41 67.80 6.02Q68.49 5.63 69.45 5.63L69.45 5.63Q70.36 5.63 71.03 5.99Q71.70 6.34 72.05 6.99Q72.40 7.63 72.40 8.46L72.40 8.46L72.40 12.61L71.03 12.61L70.92 11.63Q70.50 12.24 69.97 12.49Q69.45 12.74 68.79 12.74L68.79 12.74ZM69.03 11.33Q69.49 11.33 69.90 11.11Q70.30 10.89 70.55 10.52Q70.79 10.16 70.81 9.73L70.81 9.73L69.13 9.73Q68.58 9.73 68.30 9.97Q68.02 10.21 68.02 10.56L68.02 10.56Q68.02 10.91 68.28 11.12Q68.55 11.33 69.03 11.33L69.03 11.33ZM76.56 12.74Q75.89 12.74 75.41 12.50Q74.93 12.25 74.67 11.80Q74.42 11.34 74.42 10.72L74.42 10.72L74.42 7.17L73.32 7.17L73.32 5.78L74.44 5.78L74.44 4.08L76.07 2.89L76.07 5.78L77.79 5.78L77.79 7.17L76.07 7.17L76.07 10.42Q76.07 10.89 76.28 11.08Q76.48 11.27 76.84 11.27L76.84 11.27Q77.08 11.27 77.33 11.20Q77.59 11.13 77.79 11.03L77.79 11.03L77.79 12.54Q77.58 12.62 77.24 12.68Q76.89 12.74 76.56 12.74L76.56 12.74ZM82.11 12.74Q80.98 12.74 80.20 12.26Q79.42 11.77 79.03 10.97Q78.65 10.17 78.65 9.21L78.65 9.21Q78.65 8.29 79.02 7.46Q79.39 6.64 80.14 6.14Q80.90 5.63 82.00 5.63L82.00 5.63Q83.12 5.63 83.83 6.15Q84.54 6.67 84.85 7.45Q85.16 8.23 85.16 9.08L85.16 9.08Q85.16 9.28 85.15 9.47Q85.13 9.66 85.10 9.73L85.10 9.73L80.41 9.73Q80.65 11.23 82.12 11.23L82.12 11.23Q82.61 11.23 83.01 11.06Q83.41 10.89 83.76 10.51L83.76 10.51L84.91 11.51Q84.35 12.13 83.66 12.44Q82.97 12.74 82.11 12.74L82.11 12.74ZM80.41 8.53L83.52 8.53Q83.44 7.81 83.04 7.42Q82.64 7.03 81.98 7.03L81.98 7.03Q80.68 7.03 80.41 8.53L80.41 8.53Z"></path></g><defs data-v-fde0c5aa=""><!----></defs><g data-v-fde0c5aa="" id="8f0b2763-0e9b-4215-9e3a-ae61dc7bc4bf" stroke="none" fill="#FB0200" transform="matrix(0.7414385337188196,0,0,0.7414385337188196,37.03396974613342,124.31211921447672)"><path d="M58.536 40.639c-.088-.091-.191-.158-.284-.242 2.056-3.082 1.769-7.35-.877-10.092l-1.439 1.389c2.002 2.076 2.199 5.31.618 7.63a5.435 5.435 0 00-1.988-.389 5.467 5.467 0 00-3.957 1.688c-.874.87-1.7 1.757-2.5 2.615-3.482 3.735-6.489 6.962-11.513 6.962-4.106 0-8.092-1.515-11.25-4.289-4.744-3.867-9.679-3.912-9.887-3.912-1.187 0-2.822.136-3.329 1.313-.219.509-.274 1.335.709 2.374.572.605 1.891 1.112 2.365 1.279 3.341.883 4.837 2.983 4.858 3.014 4.427 6.274 11.545 10.02 19.041 10.02 8.102 0 13.759-3.287 19.55-11.383 1.52-2.335 2.073-5.707-.117-7.977zm-1.44 1.387c1.077 1.117 1.067 2.623.626 3.947-.841-.108-3.395-.718-5.575-4.041 1.37-1.302 3.627-1.278 4.949.094zM39.104 57.999c-6.847 0-13.354-3.429-17.397-9.158-.075-.11-1.892-2.726-5.908-3.782-.63-.228-1.348-.583-1.506-.746a2.309 2.309 0 01-.161-.187c.224-.061.629-.127 1.325-.127.044 0 4.458.063 8.598 3.438 3.495 3.071 7.949 4.763 12.542 4.763 5.894 0 9.334-3.691 12.976-7.599.373-.399.752-.807 1.139-1.215 2.127 3.048 4.593 4.084 6.044 4.434-5.318 7.311-10.297 10.179-17.652 10.179z"></path><path d="M6.151 33.078c-.626-3.2.773-5.643 3.725-9.265 2.875-3.211 3.668-8.412 3.887-11.099 6.139 3.962 5.358 7.607 4.664 10.849-.395 1.841-.802 3.744.561 5.135.956.978 1.871.997 2.468.841 1.3-.338 2.231-1.866 2.81-3.188 2 3.233 2.001 5.314 1.342 7.338-.605 1.855-2.343 4.374-5.248 5.363l.645 1.893c2.966-1.009 5.519-3.614 6.504-6.637 1.128-3.46.341-6.572-2.717-10.741l-1.225-1.669-.546 1.997c-.442 1.614-1.399 3.534-2.067 3.708-.162.04-.408-.172-.537-.305-.583-.595-.403-1.597-.034-3.316.754-3.522 1.895-8.847-7.047-13.855l-1.489-.834v1.706c0 .076-.04 7.662-3.49 11.516-3.3 4.048-4.942 6.991-4.167 10.948.854 4.36 3.907 6.464 6.317 7.46l.764-1.848c-1.959-.809-4.437-2.507-5.12-5.997z"></path><path d="M17.998 38.999h2l.005-.323c.035-1.682.129-6.148-3.971-8.54l-1.504-.878v1.741c0 .703-.162 2.939-.879 3.963l-.377.53c-.81 1.125-1.256 1.745-1.26 3.505l2 .004c.002-1.117.154-1.328.883-2.342l.392-.549c.622-.887.932-2.125 1.087-3.164 1.709 1.878 1.656 4.461 1.63 5.688l-.006.365z"></path></g><!----></svg>