<svg xmlns="http://www.w3.org/2000/svg" version="1.1" xmlns:xlink="http://www.w3.org/1999/xlink" xmlns:svgjs="http://svgjs.dev/svgjs" width="1500" height="1500" viewBox="0 0 1500 1500"><rect width="1500" height="1500" fill="#853439"></rect><g transform="matrix(0.6666666666666666,0,0,0.6666666666666666,249.39393939393938,622.5684141796751)"><svg viewBox="0 0 396 101" data-background-color="#853439" preserveAspectRatio="xMidYMid meet" height="382" width="1500" xmlns="http://www.w3.org/2000/svg" xmlns:xlink="http://www.w3.org/1999/xlink"><g id="tight-bounds" transform="matrix(1,0,0,1,0.2400000000000091,0.038966627694264844)"><svg viewBox="0 0 395.52 100.92206674461148" height="100.92206674461148" width="395.52"><g><svg viewBox="0 0 600.5947005866346 153.24954100693844" height="100.92206674461148" width="395.52"><g><rect width="6.452032563570073" height="111.44413076119616" x="181.73253042209575" y="20.90270512287114" fill="#fe5e30" opacity="1" stroke-width="0" stroke="transparent" fill-opacity="1" class="rect-yte-0" data-fill-palette-color="primary" rx="1%" id="yte-0" data-palette-color="#fe5e30"></rect></g><g transform="matrix(1,0,0,1,205.0747005866346,21.179929328744755)"><svg viewBox="0 0 395.52 110.88968234944893" height="110.88968234944893" width="395.52"><g id="textblocktransform"><svg viewBox="0 0 395.52 110.88968234944893" height="110.88968234944893" width="395.52" id="textblock"><g><svg viewBox="0 0 395.52 71.54533964049195" height="71.54533964049195" width="395.52"><g transform="matrix(1,0,0,1,0,0)"><svg width="395.52" viewBox="2.1499999999999995 -34 273.78000000000003 47.800000000000004" height="71.54533964049195" data-palette-color="#fe5e30"><g class="wordmark-text-0" data-fill-palette-color="primary" id="text-0"><path d="M5.6 0.5L5.6 0.5Q5 0.5 4.38 0.3 3.75 0.1 3.35-0.65 2.95-1.4 2.95-2.95L2.95-2.95Q2.95-4.2 3.18-6.13 3.4-8.05 3.75-10.25L3.75-10.25Q4.1-12.5 4.33-15 4.55-17.5 4.55-20.05L4.55-20.05Q4.55-21.05 4.5-22.2 4.45-23.35 4.3-24.45L4.3-24.45Q3.95-24.25 3.63-24.13 3.3-24 3-24L3-24Q2.15-24 2.15-25.65L2.15-25.65Q2.15-27.15 2.83-28.18 3.5-29.2 5.3-30.15L5.3-30.15Q7.05-31.1 9.43-31.73 11.8-32.35 14.25-32.35L14.25-32.35Q19.1-32.35 22.03-29.8 24.95-27.25 24.95-23L24.95-23Q24.95-20.4 23.9-18.2 22.85-16 21.13-14.38 19.4-12.75 17.38-11.88 15.35-11 13.4-11L13.4-11Q11.55-11 10.9-11.83 10.25-12.65 10.25-14.2L10.25-14.2Q10.25-14.95 10.43-15.58 10.6-16.2 11.2-16.2L11.2-16.2Q11.35-16.2 11.65-16.15 11.95-16.1 12.25-16L12.25-16Q12.55-15.95 13.1-15.85 13.65-15.75 14.35-15.75L14.35-15.75Q17.1-15.75 18.82-17.3 20.55-18.85 20.55-21.3L20.55-21.3Q20.55-23.85 18.65-25.3 16.75-26.75 13.75-26.75L13.75-26.75Q12.65-26.75 11.5-26.58 10.35-26.4 9.2-26.1L9.2-26.1Q9.05-22.8 8.5-18.6L8.5-18.6Q8.2-16.1 7.98-13.68 7.75-11.25 7.75-9.25L7.75-9.25Q7.75-7.5 8.08-6.18 8.4-4.85 9.4-3.9L9.4-3.9Q10.1-3.2 10.1-2.4L10.1-2.4Q10.1-1.3 8.85-0.4 7.6 0.5 5.6 0.5ZM35.6 0.65L35.6 0.65Q31.8 0.65 29.67-1.53 27.55-3.7 27.55-7.6L27.55-7.6Q27.55-11.15 29.1-14.05 30.65-16.95 33.27-18.68 35.9-20.4 39.05-20.4L39.05-20.4Q42.05-20.4 43.85-18.93 45.65-17.45 45.65-15L45.65-15Q45.65-13.05 44.45-11.4 43.25-9.75 41.25-8.78 39.25-7.8 36.8-7.8L36.8-7.8Q33.8-7.8 31.9-9.15L31.9-9.15Q31.95-6.85 33.47-5.45 35-4.05 37.4-4.05L37.4-4.05Q38.85-4.05 40.37-4.58 41.9-5.1 43-6L43-6Q43.7-6.6 44.3-6.6L44.3-6.6Q44.8-6.6 45.12-6.28 45.45-5.95 45.45-5.45L45.45-5.45Q45.45-4.35 43.55-2.55L43.55-2.55Q40.2 0.65 35.6 0.65ZM36.35-11.1L36.35-11.1Q38.15-11.1 39.35-11.85 40.55-12.6 40.55-13.75L40.55-13.75Q40.55-14.7 39.75-15.23 38.95-15.75 37.55-15.75L37.55-15.75Q35.7-15.75 34.32-14.78 32.95-13.8 32.35-12.05L32.35-12.05Q33.05-11.6 34.15-11.35 35.25-11.1 36.35-11.1ZM52.64 13.8L52.64 13.8Q51.14 13.8 50.3 12.98 49.45 12.15 49.45 10L49.45 10Q49.45 8.55 49.77 6.35 50.09 4.15 50.55 1.7L50.55 1.7Q50.89-0.25 51.22-2.4 51.55-4.55 51.77-6.63 51.99-8.7 51.99-10.35L51.99-10.35Q51.99-12.25 51.57-13.65 51.14-15.05 49.84-15.45L49.84-15.45Q49.34-15.65 48.95-15.9 48.55-16.15 48.55-16.7L48.55-16.7Q48.55-17.4 49.09-18.25 49.64-19.1 50.67-19.73 51.7-20.35 52.99-20.35L52.99-20.35Q54.7-20.35 55.34-19.18 55.99-18 55.99-16.1L55.99-16.1Q55.99-15.55 55.95-14.98 55.89-14.4 55.8-13.8L55.8-13.8Q57.24-16.6 59.62-18.53 61.99-20.45 65-20.45L65-20.45Q68-20.45 69.72-18.43 71.44-16.4 71.44-12.95L71.44-12.95Q71.44-10.4 70.64-7.98 69.84-5.55 68.39-3.6 66.94-1.65 64.92-0.5 62.89 0.65 60.39 0.65L60.39 0.65Q58.59 0.65 57.24 0.03 55.89-0.6 54.89-1.6L54.89-1.6Q54.7-0.3 54.52 1.55 54.34 3.4 54.34 5L54.34 5Q54.34 6.85 54.77 7.9 55.2 8.95 56.45 9.5L56.45 9.5Q56.99 9.75 56.99 10.3L56.99 10.3Q56.99 10.7 56.59 11.55 56.2 12.4 55.27 13.1 54.34 13.8 52.64 13.8ZM61.55-4.75L61.55-4.75Q64.39-4.75 65.94-6.55 67.5-8.35 67.5-10.7L67.5-10.7Q67.5-12.75 66.39-13.88 65.3-15 63.45-15L63.45-15Q61.55-15 60.09-13.88 58.64-12.75 57.62-10.95 56.59-9.15 55.95-7.1L55.95-7.1Q58.45-4.75 61.55-4.75ZM78.44 13.8L78.44 13.8Q76.94 13.8 76.09 12.98 75.24 12.15 75.24 10L75.24 10Q75.24 8.55 75.57 6.35 75.89 4.15 76.34 1.7L76.34 1.7Q76.69-0.25 77.02-2.4 77.34-4.55 77.57-6.63 77.79-8.7 77.79-10.35L77.79-10.35Q77.79-12.25 77.37-13.65 76.94-15.05 75.64-15.45L75.64-15.45Q75.14-15.65 74.74-15.9 74.34-16.15 74.34-16.7L74.34-16.7Q74.34-17.4 74.89-18.25 75.44-19.1 76.47-19.73 77.49-20.35 78.79-20.35L78.79-20.35Q80.49-20.35 81.14-19.18 81.79-18 81.79-16.1L81.79-16.1Q81.79-15.55 81.74-14.98 81.69-14.4 81.59-13.8L81.59-13.8Q83.04-16.6 85.42-18.53 87.79-20.45 90.79-20.45L90.79-20.45Q93.79-20.45 95.52-18.43 97.24-16.4 97.24-12.95L97.24-12.95Q97.24-10.4 96.44-7.98 95.64-5.55 94.19-3.6 92.74-1.65 90.72-0.5 88.69 0.65 86.19 0.65L86.19 0.65Q84.39 0.65 83.04 0.03 81.69-0.6 80.69-1.6L80.69-1.6Q80.49-0.3 80.32 1.55 80.14 3.4 80.14 5L80.14 5Q80.14 6.85 80.57 7.9 80.99 8.95 82.24 9.5L82.24 9.5Q82.79 9.75 82.79 10.3L82.79 10.3Q82.79 10.7 82.39 11.55 81.99 12.4 81.07 13.1 80.14 13.8 78.44 13.8ZM87.34-4.75L87.34-4.75Q90.19-4.75 91.74-6.55 93.29-8.35 93.29-10.7L93.29-10.7Q93.29-12.75 92.19-13.88 91.09-15 89.24-15L89.24-15Q87.34-15 85.89-13.88 84.44-12.75 83.42-10.95 82.39-9.15 81.74-7.1L81.74-7.1Q84.24-4.75 87.34-4.75ZM108.94 0.65L108.94 0.65Q105.14 0.65 103.02-1.53 100.89-3.7 100.89-7.6L100.89-7.6Q100.89-11.15 102.44-14.05 103.99-16.95 106.61-18.68 109.24-20.4 112.39-20.4L112.39-20.4Q115.39-20.4 117.19-18.93 118.99-17.45 118.99-15L118.99-15Q118.99-13.05 117.79-11.4 116.59-9.75 114.59-8.78 112.59-7.8 110.14-7.8L110.14-7.8Q107.14-7.8 105.24-9.15L105.24-9.15Q105.29-6.85 106.81-5.45 108.34-4.05 110.74-4.05L110.74-4.05Q112.19-4.05 113.72-4.58 115.24-5.1 116.34-6L116.34-6Q117.04-6.6 117.64-6.6L117.64-6.6Q118.14-6.6 118.47-6.28 118.79-5.95 118.79-5.45L118.79-5.45Q118.79-4.35 116.89-2.55L116.89-2.55Q113.54 0.65 108.94 0.65ZM109.69-11.1L109.69-11.1Q111.49-11.1 112.69-11.85 113.89-12.6 113.89-13.75L113.89-13.75Q113.89-14.7 113.09-15.23 112.29-15.75 110.89-15.75L110.89-15.75Q109.04-15.75 107.66-14.78 106.29-13.8 105.69-12.05L105.69-12.05Q106.39-11.6 107.49-11.35 108.59-11.1 109.69-11.1ZM125.84 0.55L125.84 0.55Q125.04 0.55 124.56 0.28 124.09 0 124.24-0.65L124.24-0.65Q124.79-2.8 125.16-5.03 125.54-7.25 125.54-9.3L125.54-9.3Q125.54-11.95 125.21-13.18 124.89-14.4 124.34-14.88 123.79-15.35 122.99-15.6L122.99-15.6Q122.64-15.75 122.36-16 122.09-16.25 122.09-16.7L122.09-16.7Q122.09-17.4 122.64-18.25 123.19-19.1 124.19-19.73 125.19-20.35 126.49-20.35L126.49-20.35Q128.19-20.35 128.86-19.18 129.54-18 129.54-16.1L129.54-16.1Q130.44-18.1 131.76-19.28 133.09-20.45 135.09-20.45L135.09-20.45Q136.44-20.45 137.34-19.85 138.24-19.25 138.24-17.9L138.24-17.9Q138.24-16.55 137.36-15.38 136.49-14.2 135.59-14.2L135.59-14.2Q135.44-14.2 135.24-14.25 135.04-14.3 134.89-14.5L134.89-14.5Q134.24-15.3 133.29-15.3L133.29-15.3Q131.84-15.3 130.74-13.4 129.64-11.5 129.54-8.15L129.54-8.15Q129.59-6.9 129.61-5.6 129.64-4.3 129.64-3.7L129.64-3.7Q129.64-1.85 128.61-0.65 127.59 0.55 125.84 0.55Z" fill="#fe5e30" data-fill-palette-color="primary"></path><path d="M157.34 0.5L157.34 0.5Q156.74 0.5 156.11 0.3 155.49 0.1 155.09-0.65 154.69-1.4 154.69-2.95L154.69-2.95Q154.69-4.2 154.91-6.13 155.14-8.05 155.49-10.25L155.49-10.25Q155.84-12.5 156.06-15 156.29-17.5 156.29-20.05L156.29-20.05Q156.29-21.05 156.24-22.2 156.19-23.35 156.04-24.45L156.04-24.45Q155.69-24.25 155.36-24.13 155.04-24 154.74-24L154.74-24Q153.89-24 153.89-25.65L153.89-25.65Q153.89-27.15 154.56-28.18 155.24-29.2 157.04-30.15L157.04-30.15Q158.79-31.1 161.16-31.73 163.54-32.35 165.99-32.35L165.99-32.35Q170.84-32.35 173.76-29.8 176.69-27.25 176.69-23L176.69-23Q176.69-20.4 175.64-18.2 174.59-16 172.86-14.38 171.14-12.75 169.11-11.88 167.09-11 165.14-11L165.14-11Q163.29-11 162.64-11.83 161.99-12.65 161.99-14.2L161.99-14.2Q161.99-14.95 162.16-15.58 162.34-16.2 162.94-16.2L162.94-16.2Q163.09-16.2 163.39-16.15 163.69-16.1 163.99-16L163.99-16Q164.29-15.95 164.84-15.85 165.39-15.75 166.09-15.75L166.09-15.75Q168.84-15.75 170.56-17.3 172.29-18.85 172.29-21.3L172.29-21.3Q172.29-23.85 170.39-25.3 168.49-26.75 165.49-26.75L165.49-26.75Q164.39-26.75 163.24-26.58 162.09-26.4 160.94-26.1L160.94-26.1Q160.79-22.8 160.24-18.6L160.24-18.6Q159.94-16.1 159.71-13.68 159.49-11.25 159.49-9.25L159.49-9.25Q159.49-7.5 159.81-6.18 160.14-4.85 161.14-3.9L161.14-3.9Q161.84-3.2 161.84-2.4L161.84-2.4Q161.84-1.3 160.59-0.4 159.34 0.5 157.34 0.5ZM185.69 0.65L185.69 0.65Q182.69 0.65 180.86-1.23 179.04-3.1 179.04-6.6L179.04-6.6Q179.04-9.1 180.01-11.58 180.99-14.05 182.84-16.05 184.69-18.05 187.29-19.25 189.89-20.45 193.14-20.45L193.14-20.45Q196.14-20.45 198.26-19.43 200.39-18.4 200.39-16.65L200.39-16.65Q200.39-16.2 200.29-15.48 200.19-14.75 200.04-14.3L200.04-14.3Q199.89-13.9 199.61-13.58 199.34-13.25 198.89-13.25L198.89-13.25Q198.69-13.25 198.14-13.4L198.14-13.4Q197.94-12.35 197.84-11.35 197.74-10.35 197.74-9.35L197.74-9.35Q197.74-7.45 198.31-5.98 198.89-4.5 200.59-4.15L200.59-4.15Q201.04-4.05 201.31-3.85 201.59-3.65 201.59-3L201.59-3Q201.59-2.45 201.31-1.6 201.04-0.75 200.26-0.08 199.49 0.6 198.04 0.6L198.04 0.6Q196.09 0.6 195.04-0.83 193.99-2.25 193.99-4.9L193.99-4.9Q192.64-2.45 190.56-0.9 188.49 0.65 185.69 0.65ZM187.29-4.55L187.29-4.55Q189.29-4.55 190.81-5.8 192.34-7.05 193.19-8.95L193.19-8.95Q193.74-10.15 194.04-11.58 194.34-13 194.44-14.4L194.44-14.4Q193.59-14.8 192.49-15.05 191.39-15.3 190.19-15.3L190.19-15.3Q187.14-15.3 185.16-13.5 183.19-11.7 183.19-9L183.19-9Q183.19-7 184.29-5.78 185.39-4.55 187.29-4.55ZM208.38 0.5L208.38 0.5Q206.93 0.5 206.23-0.3 205.53-1.1 205.53-3.1L205.53-3.1Q205.53-4.05 205.68-5.55 205.83-7.05 206.03-8.8L206.03-8.8Q206.33-10.95 206.56-13.3 206.78-15.65 206.78-17.8L206.78-17.8Q206.78-20.85 206.51-24.13 206.23-27.4 204.98-29.85L204.98-29.85Q204.53-30.85 204.53-31.3L204.53-31.3Q204.53-31.95 205.11-32.55 205.68-33.15 206.53-33.58 207.38-34 208.18-34L208.18-34Q209.48-34 210.13-32.83 210.78-31.65 210.98-29.63 211.18-27.6 211.18-25L211.18-25Q211.18-21.05 210.86-18.15 210.53-15.25 210.23-13.05L210.23-13.05Q210.03-11.6 209.86-10.3 209.68-9 209.68-7.95L209.68-7.95Q209.68-6.2 210.26-5.43 210.83-4.65 212.13-3.9L212.13-3.9Q212.48-3.7 212.66-3.53 212.83-3.35 212.83-3L212.83-3Q212.83-2.6 212.43-1.75 212.03-0.9 211.06-0.2 210.08 0.5 208.38 0.5ZM222.28 0.65L222.28 0.65Q219.28 0.65 217.46-1.23 215.63-3.1 215.63-6.6L215.63-6.6Q215.63-9.1 216.61-11.58 217.58-14.05 219.43-16.05 221.28-18.05 223.88-19.25 226.48-20.45 229.73-20.45L229.73-20.45Q232.73-20.45 234.86-19.43 236.98-18.4 236.98-16.65L236.98-16.65Q236.98-16.2 236.88-15.48 236.78-14.75 236.63-14.3L236.63-14.3Q236.48-13.9 236.21-13.58 235.93-13.25 235.48-13.25L235.48-13.25Q235.28-13.25 234.73-13.4L234.73-13.4Q234.53-12.35 234.43-11.35 234.33-10.35 234.33-9.35L234.33-9.35Q234.33-7.45 234.91-5.98 235.48-4.5 237.18-4.15L237.18-4.15Q237.63-4.05 237.91-3.85 238.18-3.65 238.18-3L238.18-3Q238.18-2.45 237.91-1.6 237.63-0.75 236.86-0.08 236.08 0.6 234.63 0.6L234.63 0.6Q232.68 0.6 231.63-0.83 230.58-2.25 230.58-4.9L230.58-4.9Q229.23-2.45 227.16-0.9 225.08 0.65 222.28 0.65ZM223.88-4.55L223.88-4.55Q225.88-4.55 227.41-5.8 228.93-7.05 229.78-8.95L229.78-8.95Q230.33-10.15 230.63-11.58 230.93-13 231.03-14.4L231.03-14.4Q230.18-14.8 229.08-15.05 227.98-15.3 226.78-15.3L226.78-15.3Q223.73-15.3 221.76-13.5 219.78-11.7 219.78-9L219.78-9Q219.78-7 220.88-5.78 221.98-4.55 223.88-4.55ZM248.58 0.65L248.58 0.65Q245.53 0.65 244.2-1.38 242.88-3.4 242.88-6.6L242.88-6.6Q242.88-7.75 243-8.85 243.13-9.95 243.28-11.05L243.28-11.05Q243.43-12.15 243.58-13.2 243.73-14.25 243.83-15.2L243.83-15.2Q242.78-14.9 241.73-14.9L241.73-14.9Q240.63-14.9 240.63-15.8L240.63-15.8Q240.63-16.75 241.48-18.13 242.33-19.5 243.6-20.85 244.88-22.2 246.15-23.13 247.43-24.05 248.33-24.05L248.33-24.05Q249.43-24.05 249.43-22.15L249.43-22.15Q249.43-21.65 249.35-21.13 249.28-20.6 249.18-20.05L249.18-20.05Q250.13-20.25 251.1-20.4 252.08-20.55 252.98-20.55L252.98-20.55Q254.13-20.55 254.75-20.15 255.38-19.75 255.38-18.6L255.38-18.6Q255.38-17.4 254.8-16.2 254.23-15 253.53-15L253.53-15Q253.38-15 253.03-15.05 252.68-15.1 252.18-15.2L252.18-15.2Q251.53-15.35 250.53-15.5 249.53-15.65 248.13-15.65L248.13-15.65Q247.78-14.1 247.5-12.48 247.23-10.85 247.23-9.55L247.23-9.55Q247.23-6.65 248.68-5.6 250.13-4.55 252.88-4.55L252.88-4.55Q253.73-4.55 254.08-4.28 254.43-4 254.43-3.3L254.43-3.3Q254.43-1.65 252.73-0.5 251.03 0.65 248.58 0.65ZM265.88 0.65L265.88 0.65Q262.08 0.65 259.95-1.53 257.83-3.7 257.83-7.6L257.83-7.6Q257.83-11.15 259.38-14.05 260.93-16.95 263.55-18.68 266.18-20.4 269.33-20.4L269.33-20.4Q272.33-20.4 274.13-18.93 275.93-17.45 275.93-15L275.93-15Q275.93-13.05 274.73-11.4 273.53-9.75 271.53-8.78 269.53-7.8 267.08-7.8L267.08-7.8Q264.08-7.8 262.18-9.15L262.18-9.15Q262.23-6.85 263.75-5.45 265.28-4.05 267.68-4.05L267.68-4.05Q269.13-4.05 270.65-4.58 272.18-5.1 273.28-6L273.28-6Q273.98-6.6 274.58-6.6L274.58-6.6Q275.08-6.6 275.4-6.28 275.73-5.95 275.73-5.45L275.73-5.45Q275.73-4.35 273.83-2.55L273.83-2.55Q270.48 0.65 265.88 0.65ZM266.63-11.1L266.63-11.1Q268.43-11.1 269.63-11.85 270.83-12.6 270.83-13.75L270.83-13.75Q270.83-14.7 270.03-15.23 269.23-15.75 267.83-15.75L267.83-15.75Q265.98-15.75 264.6-14.78 263.23-13.8 262.63-12.05L262.63-12.05Q263.33-11.6 264.43-11.35 265.53-11.1 266.63-11.1Z" fill="#e7d6ce" data-fill-palette-color="accent"></path></g></svg></g></svg></g><g transform="matrix(1,0,0,1,0,88.43547724146072)"><svg viewBox="0 0 232.209792 22.454205107988205" height="22.454205107988205" width="232.209792"><g transform="matrix(1,0,0,1,0,0)"><svg width="232.209792" viewBox="2.1911805611129997 -38.38 525.098819438887 50.78" height="22.454205107988205" data-palette-color="#fe5e30"><path d="M13.38 0.59L13.38 0.59Q10.28 0.59 8.24 0.02 6.2-0.54 4.97-1.38 3.74-2.22 3.08-3.05L3.08-3.05Q2.86-3.37 2.69-3.66 2.51-3.96 2.44-4.32L2.44-4.32Q2.34-4.81 2.25-5.6 2.15-6.4 2.22-7.45L2.22-7.45Q2.25-7.89 2.39-8.06L2.39-8.06Q2.56-8.25 2.95-8.35L2.95-8.35Q3.66-8.52 4.8-8.65 5.93-8.79 6.42-8.79L6.42-8.79Q6.93-8.79 7.25-8.59 7.57-8.4 8.01-7.93L8.01-7.93Q8.5-7.42 9.69-6.63 10.89-5.83 13.38-5.83L13.38-5.83Q15.77-5.83 16.99-6.84 18.21-7.84 18.21-9.62L18.21-9.62Q18.21-10.57 17.64-11.41 17.07-12.26 15.55-13.1 14.04-13.94 11.23-14.87L11.23-14.87Q6.59-16.43 4.54-18.75 2.49-21.07 2.49-25.2L2.49-25.2Q2.49-28.61 4.15-30.91 5.81-33.2 8.74-34.38 11.67-35.55 15.5-35.55L15.5-35.55Q18.46-35.55 20.4-34.85 22.34-34.16 23.41-33.29 24.49-32.42 24.8-31.88L24.8-31.88Q25-31.57 25.06-31.41 25.12-31.25 25.15-30.98L25.15-30.98Q25.22-30.22 25.2-29.3 25.17-28.37 25.02-27.2L25.02-27.2Q24.95-26.81 24.76-26.66L24.76-26.66Q24.58-26.54 24.22-26.54L24.22-26.54Q21.85-26.49 20.56-26.78L20.56-26.78Q20.04-26.9 19.87-27.03 19.7-27.15 19.43-27.42L19.43-27.42Q19.04-27.88 18.2-28.5 17.36-29.13 15.5-29.13L15.5-29.13Q12.94-29.13 11.87-27.97 10.79-26.81 10.79-25.37L10.79-25.37Q10.79-23.66 12.38-22.69 13.96-21.73 17.38-20.51L17.38-20.51Q20.24-19.51 22.29-18.33 24.34-17.16 25.43-15.33 26.51-13.5 26.51-10.5L26.51-10.5Q26.51-6.76 24.79-4.3 23.07-1.83 20.1-0.62 17.14 0.59 13.38 0.59ZM47.56-25.61L47.56-25.61Q51.12-25.61 53.43-24.01 55.73-22.41 56.87-19.62 58.01-16.82 58.01-13.21L58.01-13.21Q58.01-9.3 56.67-6.18 55.34-3.05 52.76-1.22 50.17 0.61 46.34 0.61L46.34 0.61Q44.36 0.61 43.08 0.16 41.79-0.29 41.03-0.92 40.26-1.54 39.82-2.05L39.82-2.05 39.72-2.05 39.72 8.35Q39.72 8.94 39.48 9.25L39.48 9.25Q38.45 10.6 36.47 12.16L36.47 12.16Q36.13 12.4 35.86 12.4L35.86 12.4Q35.57 12.4 35.25 12.16L35.25 12.16Q34.2 11.35 33.48 10.64 32.76 9.94 32.25 9.25L32.25 9.25Q32 8.94 32 8.35L32 8.35 32-21.75Q32-22.34 32.25-22.66L32.25-22.66Q32.76-23.34 33.48-24.05 34.2-24.76 35.25-25.56L35.25-25.56Q35.57-25.81 35.91-25.81L35.91-25.81Q36.23-25.81 36.57-25.56L36.57-25.56Q37.6-24.76 38.33-24.02 39.06-23.29 39.62-22.51L39.62-22.51 39.74-22.51Q40.16-23.02 41.01-23.75 41.87-24.49 43.44-25.05 45.02-25.61 47.56-25.61ZM44.55-5.62L44.55-5.62Q47.19-5.62 48.64-7.46 50.1-9.3 50.1-12.79L50.1-12.79Q50.1-19.38 44.68-19.38L44.68-19.38Q42.38-19.38 41.28-18.44 40.18-17.5 39.72-16.46L39.72-16.46 39.72-11.16Q39.72-8.79 40.94-7.2 42.16-5.62 44.55-5.62ZM62.13-33.2L62.13-33.2Q62.13-33.52 62.32-33.76 62.52-34.01 62.84-34.4L62.84-34.4Q63.52-35.18 64.42-36.05 65.33-36.91 66.25-37.72L66.25-37.72Q66.84-38.18 67.13-38.18L67.13-38.18Q67.43-38.18 68.04-37.72L68.04-37.72Q70.01-36.01 71.41-34.4L71.41-34.4Q71.72-34.03 71.93-33.78 72.14-33.52 72.14-33.2L72.14-33.2Q72.14-32.89 71.93-32.64 71.72-32.4 71.38-31.98L71.38-31.98Q70.72-31.23 69.84-30.36 68.96-29.49 68.04-28.71L68.04-28.71Q67.7-28.42 67.5-28.33 67.3-28.25 67.13-28.25L67.13-28.25Q66.96-28.25 66.78-28.33 66.6-28.42 66.21-28.71L66.21-28.71Q65.23-29.49 64.37-30.36 63.52-31.23 62.84-32.03L62.84-32.03Q62.52-32.42 62.32-32.65 62.13-32.89 62.13-33.2ZM70.97-23.71L70.97-1.29Q70.97-0.56 70.66-0.28 70.36 0 69.62 0L69.62 0 64.59 0Q63.86 0 63.56-0.28 63.25-0.56 63.25-1.29L63.25-1.29 63.25-23.71Q63.25-24.44 63.56-24.72 63.86-25 64.59-25L64.59-25 69.62-25Q70.36-25 70.66-24.72 70.97-24.44 70.97-23.71L70.97-23.71ZM90.06-25.61L90.06-25.61Q92.96-25.61 94.28-25.13 95.6-24.66 95.94-24.39L95.94-24.39Q96.48-24.05 96.77-23.51L96.77-23.51Q96.94-23.24 97.16-22.58 97.38-21.92 97.48-21.14L97.48-21.14Q97.6-20.53 97.5-20.28 97.4-20.02 96.89-19.65L96.89-19.65Q96.31-19.26 95.61-18.96 94.91-18.65 94.47-18.53L94.47-18.53Q94.11-18.43 93.91-18.48 93.72-18.53 93.38-18.77L93.38-18.77Q92.99-19.04 92.28-19.37 91.57-19.7 90.32-19.7L90.32-19.7Q88.74-19.7 87.31-18.92 85.88-18.14 84.99-16.58 84.1-15.01 84.1-12.67L84.1-12.67Q84.1-9.16 85.94-7.23 87.79-5.3 90.89-5.3L90.89-5.3Q92.47-5.3 93.52-5.63 94.57-5.96 95.18-6.3L95.18-6.3Q95.67-6.57 95.93-6.43 96.18-6.3 96.33-5.96L96.33-5.96 98.11-1.93Q98.38-1.29 97.82-1.03L97.82-1.03Q96.92-0.56 94.84 0.02 92.77 0.61 89.71 0.61L89.71 0.61Q83.59 0.61 79.92-2.65 76.26-5.91 76.26-12.4L76.26-12.4Q76.26-16.55 77.95-19.51 79.63-22.46 82.73-24.04 85.83-25.61 90.06-25.61ZM114.35 0.61L114.35 0.61Q110.22 0.61 107.17-0.72 104.12-2.05 102.43-4.86 100.75-7.67 100.75-12.11L100.75-12.11Q100.75-18.77 104.16-22.19 107.58-25.61 113.25-25.61L113.25-25.61Q116.93-25.61 119.48-24.29 122.04-22.97 123.37-20.65 124.7-18.33 124.7-15.36L124.7-15.36Q124.7-12.45 123.21-11.3 121.72-10.16 118.86-10.16L118.86-10.16 108.39-10.16Q108.58-7.64 110.23-6.32 111.88-5 114.71-5L114.71-5Q116.96-5 118.31-5.68 119.67-6.35 120.2-6.74L120.2-6.74Q120.67-7.08 121.25-7.06L121.25-7.06Q121.72-7.06 122.59-6.87 123.45-6.69 124.31-6.2L124.31-6.2Q124.92-5.88 124.92-5.32L124.92-5.32Q124.92-5 124.79-4.42L124.79-4.42Q124.72-4.08 124.55-3.43 124.38-2.78 124.11-2.22L124.11-2.22Q123.96-1.95 123.65-1.71L123.65-1.71Q123.16-1.37 122.07-0.81 120.99-0.24 119.11 0.18 117.23 0.61 114.35 0.61ZM108.34-15.16L108.34-15.16 116.3-15.16Q117.54-15.16 117.54-16.31L117.54-16.31Q117.54-18.04 116.46-19.23 115.37-20.41 113.2-20.41L113.2-20.41Q110.83-20.41 109.72-18.9 108.61-17.38 108.34-15.16ZM158.63 0.59L158.63 0.59Q154.04 0.59 150.8-0.61 147.57-1.81 145.87-4.81 144.17-7.81 144.17-13.23L144.17-13.23 144.17-31.1Q144.17-31.81 144.42-32.18L144.42-32.18Q145.52-33.79 147.49-35.57L147.49-35.57Q147.86-35.86 148.13-35.86L148.13-35.86Q148.42-35.86 148.74-35.57L148.74-35.57Q149.81-34.64 150.55-33.8 151.28-32.96 151.82-32.18L151.82-32.18Q152.06-31.79 152.06-31.1L152.06-31.1 152.06-14.45Q152.06-10.96 152.8-9.14 153.55-7.32 155.01-6.67 156.48-6.01 158.63-6.01L158.63-6.01Q160.82-6.01 162.29-6.67 163.75-7.32 164.49-9.14 165.22-10.96 165.22-14.45L165.22-14.45 165.22-31.1Q165.22-31.81 165.46-32.18L165.46-32.18Q166.56-33.79 168.54-35.57L168.54-35.57Q168.91-35.86 169.17-35.86L169.17-35.86Q169.47-35.86 169.78-35.57L169.78-35.57Q170.86-34.64 171.59-33.8 172.32-32.96 172.86-32.18L172.86-32.18Q173.11-31.79 173.11-31.1L173.11-31.1 173.11-13.23Q173.11-7.81 171.25-4.81 169.39-1.81 166.13-0.61 162.88 0.59 158.63 0.59ZM195.56-25.61L195.56-25.61Q199.13-25.61 201.44-24.01 203.74-22.41 204.88-19.62 206.01-16.82 206.01-13.21L206.01-13.21Q206.01-9.3 204.68-6.18 203.35-3.05 200.76-1.22 198.18 0.61 194.34 0.61L194.34 0.61Q192.37 0.61 191.08 0.16 189.8-0.29 189.03-0.92 188.26-1.54 187.82-2.05L187.82-2.05 187.73-2.05 187.73 8.35Q187.73 8.94 187.48 9.25L187.48 9.25Q186.46 10.6 184.48 12.16L184.48 12.16Q184.14 12.4 183.87 12.4L183.87 12.4Q183.58 12.4 183.26 12.16L183.26 12.16Q182.21 11.35 181.49 10.64 180.77 9.94 180.26 9.25L180.26 9.25Q180.01 8.94 180.01 8.35L180.01 8.35 180.01-21.75Q180.01-22.34 180.26-22.66L180.26-22.66Q180.77-23.34 181.49-24.05 182.21-24.76 183.26-25.56L183.26-25.56Q183.58-25.81 183.92-25.81L183.92-25.81Q184.24-25.81 184.58-25.56L184.58-25.56Q185.6-24.76 186.34-24.02 187.07-23.29 187.63-22.51L187.63-22.51 187.75-22.51Q188.17-23.02 189.02-23.75 189.88-24.49 191.45-25.05 193.02-25.61 195.56-25.61ZM192.56-5.62L192.56-5.62Q195.2-5.62 196.65-7.46 198.1-9.3 198.1-12.79L198.1-12.79Q198.1-19.38 192.68-19.38L192.68-19.38Q190.39-19.38 189.29-18.44 188.19-17.5 187.73-16.46L187.73-16.46 187.73-11.16Q187.73-8.79 188.95-7.2 190.17-5.62 192.56-5.62ZM241.24-12.45L241.24-1.29Q241.24-0.56 240.93-0.28 240.63 0 239.89 0L239.89 0 234.69 0Q233.96 0 233.66-0.28 233.35-0.56 233.35-1.29L233.35-1.29 233.35-12.3 228.49-17.94Q226.76-19.97 225.58-21.58 224.39-23.19 223.81-24.91 223.22-26.64 223.22-28.96L223.22-28.96 223.22-31.1Q223.22-31.81 223.46-32.18L223.46-32.18Q224.56-33.79 226.54-35.57L226.54-35.57Q226.91-35.86 227.2-35.86L227.2-35.86Q227.49-35.86 227.81-35.57L227.81-35.57Q228.88-34.64 229.62-33.8 230.35-32.96 230.89-32.18L230.89-32.18Q231.13-31.79 231.13-31.1L231.13-31.1 231.13-28.98Q231.13-27.39 232.06-25.46 232.99-23.54 235.18-21.22L235.18-21.22 237.55-18.73 239.87-21.22Q241.85-23.34 242.89-25.27 243.92-27.2 243.92-28.96L243.92-28.96 243.92-31.1Q243.92-31.81 244.17-32.18L244.17-32.18Q245.22-33.76 247.15-35.57L247.15-35.57Q247.51-35.86 247.76-35.86L247.76-35.86Q248.05-35.86 248.37-35.57L248.37-35.57Q249.39-34.64 250.11-33.8 250.83-32.96 251.34-32.18L251.34-32.18Q251.59-31.79 251.59-31.1L251.59-31.1 251.59-28.96Q251.59-26.27 250.42-23.82 249.25-21.36 246.44-18.24L246.44-18.24 241.24-12.45ZM268.33 0.61L268.33 0.61Q262.18 0.61 258.59-2.66 255-5.93 255-12.4L255-12.4Q255-19.04 258.73-22.33 262.45-25.61 268.68-25.61L268.68-25.61Q274.68-25.61 278.3-22.38 281.91-19.14 281.91-12.84L281.91-12.84Q281.91-6.27 278.3-2.83 274.68 0.61 268.33 0.61ZM268.58-5.3L268.58-5.3Q271.26-5.3 272.63-6.97 274-8.64 274-12.7L274-12.7Q274-16.55 272.62-18.13 271.24-19.7 268.53-19.7L268.53-19.7Q265.92-19.7 264.42-18.01 262.91-16.31 262.91-12.5L262.91-12.5Q262.91-8.52 264.34-6.91 265.77-5.3 268.58-5.3ZM295.87 0.61L295.87 0.61Q287.18 0.61 287.18-9.91L287.18-9.91 287.16-22.31Q287.16-22.9 287.4-23.22L287.4-23.22Q288.42-24.56 290.4-26.12L290.4-26.12Q290.74-26.37 291.01-26.37L291.01-26.37Q291.33-26.37 291.62-26.12L291.62-26.12Q292.67-25.32 293.39-24.61 294.11-23.9 294.63-23.22L294.63-23.22Q294.87-22.9 294.87-22.31L294.87-22.31 294.87-10.6Q294.87-5.3 299.07-5.3L299.07-5.3Q301.14-5.3 302.39-6.75 303.63-8.2 303.63-10.69L303.63-10.69 303.63-22.31Q303.63-22.9 303.88-23.22L303.88-23.22Q304.9-24.56 306.88-26.12L306.88-26.12Q307.22-26.37 307.49-26.37L307.49-26.37Q307.81-26.37 308.1-26.12L308.1-26.12Q309.15-25.32 309.87-24.61 310.59-23.9 311.11-23.22L311.11-23.22Q311.35-22.9 311.35-22.31L311.35-22.31 311.35-1.12Q311.35-0.66 311.03-0.33 310.71 0 310.23 0L310.23 0 306.56 0Q306.17 0 305.87-0.11 305.56-0.22 305.29-0.54L305.29-0.54 303.78-2.49 303.61-2.49Q303.22-1.93 302.4-1.2 301.58-0.46 300.03 0.07 298.48 0.61 295.87 0.61ZM325.65-22.17L325.65-20.36 325.75-20.36Q327.58-25.44 332.34-25.44L332.34-25.44Q332.95-25.44 333.34-25.38 333.73-25.32 333.88-25.27L333.88-25.27Q334.25-25.15 334.25-24.71L334.25-24.71 334.25-18.82Q334.25-18.07 333.37-18.41L333.37-18.41Q333.08-18.53 332.53-18.66 331.98-18.8 331-18.8L331-18.8Q328.49-18.8 327.07-16.96 325.65-15.11 325.65-11.94L325.65-11.94 325.65-1.29Q325.65-0.56 325.35-0.28 325.04 0 324.31 0L324.31 0 319.28 0Q318.55 0 318.24-0.28 317.94-0.56 317.94-1.29L317.94-1.29 317.94-21.75Q317.94-22.34 318.18-22.66L318.18-22.66Q318.7-23.34 319.42-24.05 320.14-24.76 321.19-25.56L321.19-25.56Q321.38-25.71 321.58-25.76 321.77-25.81 321.92-25.81L321.92-25.81Q322.26-25.81 322.6-25.56L322.6-25.56Q324.63-23.97 325.43-22.85L325.43-22.85Q325.65-22.56 325.65-22.17L325.65-22.17ZM360.17-14.84L360.17-1.29Q360.17-0.56 359.86-0.28 359.56 0 358.83 0L358.83 0 353.63 0Q352.89 0 352.59-0.28 352.28-0.56 352.28-1.29L352.28-1.29 352.28-31.1Q352.28-31.81 352.53-32.18L352.53-32.18Q353.63-33.79 355.6-35.57L355.6-35.57Q355.97-35.86 356.24-35.86L356.24-35.86Q356.53-35.86 356.85-35.57L356.85-35.57Q357.92-34.64 358.66-33.8 359.39-32.96 359.93-32.18L359.93-32.18Q360.17-31.79 360.17-31.1L360.17-31.1 360.17-20.97 360.73-20.97Q363.78-20.97 365.69-21.81 367.59-22.66 368.62-24.08 369.64-25.51 370.02-27.27 370.4-29.03 370.4-30.86L370.4-30.86 370.4-31.1Q370.4-31.81 370.64-32.18L370.64-32.18Q371.74-33.79 373.72-35.57L373.72-35.57Q374.09-35.86 374.35-35.86L374.35-35.86Q374.65-35.86 374.97-35.57L374.97-35.57Q376.04-34.64 376.77-33.8 377.5-32.96 378.04-32.18L378.04-32.18Q378.29-31.79 378.29-31.1L378.29-31.1 378.29-30.86Q378.29-28.88 377.89-26.77 377.5-24.66 376.52-22.78 375.53-20.9 373.73-19.57 371.94-18.24 369.11-17.82L369.11-17.82 369.11-17.65Q371.64-16.85 373.63-14.98 375.62-13.11 377.08-10.72 378.53-8.33 379.46-5.91 380.38-3.49 380.78-1.59L380.78-1.59Q380.97-0.68 380.78-0.34 380.58 0 379.85 0L379.85 0 373.87 0Q372.62 0 372.4-1.15L372.4-1.15Q372.04-3 370.97-5.33 369.91-7.67 368.32-9.84 366.74-12.01 364.8-13.43 362.86-14.84 360.73-14.84L360.73-14.84 360.17-14.84ZM384.14-33.2L384.14-33.2Q384.14-33.52 384.34-33.76 384.53-34.01 384.85-34.4L384.85-34.4Q385.53-35.18 386.44-36.05 387.34-36.91 388.27-37.72L388.27-37.72Q388.85-38.18 389.15-38.18L389.15-38.18Q389.44-38.18 390.05-37.72L390.05-37.72Q392.03-36.01 393.42-34.4L393.42-34.4Q393.74-34.03 393.94-33.78 394.15-33.52 394.15-33.2L394.15-33.2Q394.15-32.89 393.94-32.64 393.74-32.4 393.4-31.98L393.4-31.98Q392.74-31.23 391.86-30.36 390.98-29.49 390.05-28.71L390.05-28.71Q389.71-28.42 389.51-28.33 389.32-28.25 389.15-28.25L389.15-28.25Q388.98-28.25 388.79-28.33 388.61-28.42 388.22-28.71L388.22-28.71Q387.24-29.49 386.39-30.36 385.53-31.23 384.85-32.03L384.85-32.03Q384.53-32.42 384.34-32.65 384.14-32.89 384.14-33.2ZM392.98-23.71L392.98-1.29Q392.98-0.56 392.67-0.28 392.37 0 391.64 0L391.64 0 386.61 0Q385.88 0 385.57-0.28 385.27-0.56 385.27-1.29L385.27-1.29 385.27-23.71Q385.27-24.44 385.57-24.72 385.88-25 386.61-25L386.61-25 391.64-25Q392.37-25 392.67-24.72 392.98-24.44 392.98-23.71L392.98-23.71ZM409.51 0.61L409.51 0.61Q401.35 0.61 401.35-7.86L401.35-7.86 401.35-19.31 398.59-19.31Q397.86-19.31 397.58-19.62 397.3-19.92 397.3-20.65L397.3-20.65 397.3-23.66Q397.3-24.39 397.58-24.69 397.86-25 398.59-25L398.59-25 401.35-25 401.35-28.93Q401.35-29.52 401.6-29.83L401.6-29.83Q402.62-31.18 404.6-32.74L404.6-32.74Q404.94-32.98 405.21-32.98L405.21-32.98Q405.5-32.98 405.79-32.74L405.79-32.74Q406.84-31.93 407.56-31.23 408.29-30.52 408.8-29.83L408.8-29.83Q409.04-29.52 409.04-28.93L409.04-28.93 409.04-25 413.36-25Q414.1-25 414.38-24.69 414.66-24.39 414.66-23.66L414.66-23.66 414.66-20.65Q414.66-19.92 414.38-19.62 414.1-19.31 413.36-19.31L413.36-19.31 409.04-19.31 409.04-9.2Q409.04-5.3 411.87-5.3L411.87-5.3Q412.31-5.3 412.68-5.38 413.05-5.47 413.31-5.57L413.31-5.57Q413.83-5.76 414.03-5.71 414.24-5.66 414.41-5.18L414.41-5.18 415.83-1.39Q416.05-0.78 415.54-0.51L415.54-0.51Q415.17-0.34 413.77 0.13 412.36 0.61 409.51 0.61ZM432.35-25.61L432.35-25.61Q435.26-25.61 436.58-25.13 437.9-24.66 438.24-24.39L438.24-24.39Q438.78-24.05 439.07-23.51L439.07-23.51Q439.24-23.24 439.46-22.58 439.68-21.92 439.78-21.14L439.78-21.14Q439.9-20.53 439.8-20.28 439.7-20.02 439.19-19.65L439.19-19.65Q438.6-19.26 437.91-18.96 437.21-18.65 436.77-18.53L436.77-18.53Q436.41-18.43 436.21-18.48 436.02-18.53 435.68-18.77L435.68-18.77Q435.28-19.04 434.58-19.37 433.87-19.7 432.62-19.7L432.62-19.7Q431.04-19.7 429.61-18.92 428.18-18.14 427.29-16.58 426.4-15.01 426.4-12.67L426.4-12.67Q426.4-9.16 428.24-7.23 430.08-5.3 433.19-5.3L433.19-5.3Q434.77-5.3 435.82-5.63 436.87-5.96 437.48-6.3L437.48-6.3Q437.97-6.57 438.23-6.43 438.48-6.3 438.63-5.96L438.63-5.96 440.41-1.93Q440.68-1.29 440.12-1.03L440.12-1.03Q439.22-0.56 437.14 0.02 435.06 0.61 432.01 0.61L432.01 0.61Q425.89 0.61 422.22-2.65 418.56-5.91 418.56-12.4L418.56-12.4Q418.56-16.55 420.25-19.51 421.93-22.46 425.03-24.04 428.13-25.61 432.35-25.61ZM452.1-16.46L452.1-1.29Q452.1-0.56 451.8-0.28 451.49 0 450.76 0L450.76 0 445.73 0Q445 0 444.69-0.28 444.39-0.56 444.39-1.29L444.39-1.29 444.39-34.33Q444.39-34.91 444.63-35.23L444.63-35.23Q445.66-36.57 447.64-38.13L447.64-38.13Q447.98-38.38 448.25-38.38L448.25-38.38Q448.56-38.38 448.86-38.13L448.86-38.13Q449.91-37.33 450.63-36.62 451.35-35.91 451.86-35.23L451.86-35.23Q452.1-34.91 452.1-34.33L452.1-34.33 452.1-22.49 452.2-22.49Q452.74-23.19 453.59-23.91 454.45-24.63 455.88-25.12 457.3-25.61 459.53-25.61L459.53-25.61Q461.77-25.61 463.85-24.68 465.92-23.75 467.24-21.56 468.56-19.36 468.56-15.55L468.56-15.55 468.56-1.29Q468.56-0.56 468.25-0.28 467.95 0 467.22 0L467.22 0 462.19 0Q461.45 0 461.15-0.28 460.84-0.56 460.84-1.29L460.84-1.29 460.84-14.21Q460.84-16.92 459.72-18.15 458.6-19.38 456.67-19.38L456.67-19.38Q454.76-19.38 453.71-18.55 452.66-17.72 452.1-16.46L452.1-16.46ZM487.4 0.61L487.4 0.61Q483.28 0.61 480.23-0.72 477.17-2.05 475.49-4.86 473.81-7.67 473.81-12.11L473.81-12.11Q473.81-18.77 477.22-22.19 480.64-25.61 486.31-25.61L486.31-25.61Q489.99-25.61 492.54-24.29 495.09-22.97 496.42-20.65 497.76-18.33 497.76-15.36L497.76-15.36Q497.76-12.45 496.27-11.3 494.78-10.16 491.92-10.16L491.92-10.16 481.45-10.16Q481.64-7.64 483.29-6.32 484.94-5 487.77-5L487.77-5Q490.02-5 491.37-5.68 492.73-6.35 493.26-6.74L493.26-6.74Q493.73-7.08 494.31-7.06L494.31-7.06Q494.78-7.06 495.64-6.87 496.51-6.69 497.36-6.2L497.36-6.2Q497.97-5.88 497.97-5.32L497.97-5.32Q497.97-5 497.85-4.42L497.85-4.42Q497.78-4.08 497.61-3.43 497.44-2.78 497.17-2.22L497.17-2.22Q497.02-1.95 496.71-1.71L496.71-1.71Q496.22-1.37 495.13-0.81 494.04-0.24 492.16 0.18 490.28 0.61 487.4 0.61ZM481.4-15.16L481.4-15.16 489.36-15.16Q490.6-15.16 490.6-16.31L490.6-16.31Q490.6-18.04 489.52-19.23 488.43-20.41 486.26-20.41L486.26-20.41Q483.89-20.41 482.78-18.9 481.67-17.38 481.4-15.16ZM527.29-15.55L527.29-15.55 527.29-1.29Q527.29-0.56 526.99-0.28 526.68 0 525.95 0L525.95 0 520.92 0Q520.19 0 519.88-0.28 519.58-0.56 519.58-1.29L519.58-1.29 519.58-14.28Q519.58-16.94 518.46-18.16 517.33-19.38 515.4-19.38L515.4-19.38Q513.48-19.38 512.44-18.55 511.4-17.72 510.84-16.46L510.84-16.46 510.84-1.29Q510.84-0.56 510.53-0.28 510.23 0 509.5 0L509.5 0 504.47 0Q503.73 0 503.43-0.28 503.12-0.56 503.12-1.29L503.12-1.29 503.12-21.75Q503.12-22.34 503.37-22.66L503.37-22.66Q503.88-23.34 504.6-24.05 505.32-24.76 506.37-25.56L506.37-25.56Q506.69-25.81 506.98-25.81L506.98-25.81Q507.25-25.81 507.59-25.56L507.59-25.56Q508.62-24.76 509.35-24.02 510.08-23.29 510.64-22.51L510.64-22.51 510.77-22.51Q511.18-23.05 512.01-23.77 512.84-24.49 514.34-25.05 515.84-25.61 518.19-25.61L518.19-25.61Q520.48-25.61 522.56-24.68 524.63-23.75 525.96-21.56 527.29-19.36 527.29-15.55Z" opacity="1" transform="matrix(1,0,0,1,0,0)" fill="#fe5e30" class="slogan-text-1" data-fill-palette-color="secondary" id="text-1"></path></svg></g></svg></g></svg></g></svg></g><g><svg viewBox="0 0 164.84239282112696 153.24954100693844" height="153.24954100693844" width="164.84239282112696"><g><svg xmlns="http://www.w3.org/2000/svg" xmlns:xlink="http://www.w3.org/1999/xlink" version="1.1" x="0" y="0" viewBox="4.647999999999996 7.837 90.705 84.326" style="enable-background:new 0 0 100 100;" xml:space="preserve" height="153.24954100693844" width="164.84239282112696" class="icon-icon-0" data-fill-palette-color="accent" id="icon-0"><path d="M42.58 26.5A3.47 3.47 0 0 0 43.454 24.214V15.337C43.453 11.201 40.089 7.837 35.953 7.837H15.046C10.91 7.837 7.546 11.201 7.546 15.337V24.214C7.546 25.09 7.882 25.885 8.418 26.5 6.137 28.175 4.648 30.867 4.648 33.908V88.663A3.5 3.5 0 0 0 8.147 92.163H42.851A3.504 3.504 0 0 0 46.352 88.663V33.908C46.352 30.868 44.862 28.175 42.58 26.5M42.853 89.163H8.147A0.5 0.5 0 0 1 7.647 88.663V75.639H43.352V88.663A0.5 0.5 0 0 1 42.852 89.163M15.046 10.837H35.953C37.89 10.837 39.53 12.074 40.163 13.795H10.836C11.468 12.075 13.109 10.837 15.046 10.837M40.453 16.795V18.756H10.546V16.796zM11.046 24.714A0.5 0.5 0 0 1 10.546 24.214V21.756H40.453V24.214A0.5 0.5 0 0 1 39.953 24.714zM13.841 27.714H37.158A6.2 6.2 0 0 1 43.352 33.908V42.824H7.647V33.908A6.2 6.2 0 0 1 13.841 27.714M7.647 45.824H43.352V72.639H7.647zM91.581 26.5A3.47 3.47 0 0 0 92.453 24.214V15.337C92.453 11.201 89.09 7.837 84.953 7.837H64.046C59.91 7.837 56.546 11.201 56.546 15.337V24.214C56.546 25.092 56.882 25.885 57.418 26.5 55.138 28.175 53.648 30.868 53.648 33.908V88.663C53.648 90.593 55.218 92.163 57.148 92.163H91.853C93.783 92.163 95.353 90.593 95.353 88.663V33.908C95.353 30.868 93.863 28.175 91.58 26.5M91.853 89.163H57.148A0.5 0.5 0 0 1 56.648 88.663V75.639H92.353V88.663C92.353 88.938 92.128 89.163 91.853 89.163M64.046 10.837H84.953C86.891 10.837 88.531 12.074 89.163 13.795H59.837C60.468 12.075 62.109 10.837 64.046 10.837M89.453 16.795V18.756H59.546V16.796zM60.046 24.714A0.5 0.5 0 0 1 59.546 24.214V21.756H89.453V24.214A0.5 0.5 0 0 1 88.953 24.714zM62.842 27.714H86.158A6.2 6.2 0 0 1 92.353 33.908V42.824H56.648V33.908A6.2 6.2 0 0 1 62.842 27.714M56.648 72.639V45.824H92.353V72.639z" fill="#e7d6ce" data-fill-palette-color="accent"></path></svg></g></svg></g></svg></g><defs></defs></svg><rect width="395.52" height="100.92206674461148" fill="none" stroke="none" visibility="hidden"></rect></g></svg></g></svg>